<svg xmlns="http://www.w3.org/2000/svg" width="68.468" height="11.615" viewBox="0 0 68.468 11.615"><defs><style>.a{fill:#fff;}</style></defs><g transform="translate(2353.777 1471)"><path class="a" d="M107.024,1.8H92.1L90.335,5.954h4.7L96.08,3.491l8.282-.025c3.233,0,2.811,1.368,2.288,2.487,0,0-.423.9-1.467,3.134-1.07,2.263-3.159,1.89-3.98,1.915H92.9l.97-2.413H89.191l-1.791,4.2h15.446c1.492-.05,5.447.5,6.915-2.786s2.015-4.651,2.015-4.651C112.471,3.715,112.969,1.8,107.024,1.8Z" transform="translate(-2419.494 -1472.352)"/><path class="a" d="M200.372,1.25l-.7,2.139H187.265c-2.139,0-3.01-.05-3.93,2.263h11.889c1.567,0,3.383.348,2.761,2.189-.995,2.413-1.268,4.527-7.536,4.527H175.5l1.268-2.189h13.8c1.517-.05,1.567-.9,2.164-2.288H181.221c-1.841,0-3.532-.6-2.811-2.363s1.045-2.487,1.045-2.487c.572-1.318,2.437-1.841,6.094-1.841C189.155,1.25,200.372,1.25,200.372,1.25Z" transform="translate(-2485.681 -1471.901)"/><path class="a" d="M23.423,4.974c.5-1.144.771-1.865.771-1.865C24.866,1.393,23.224,0,17.777,0H4.3L3.3,2.239H16.757c1.766-.05,2.462.3,1.965,1.517-.1.249-.4.871-.4.871H4.719c-2.189,0-2.736.721-3.308,2.139-.249.622-.6,1.418-.97,2.263-.746,1.791.323,2.587,4.751,2.587h9.526c2.413-.124,5.8.025,7.039-2.786.3-.7.6-1.343.871-1.965h.9l.846-1.915h-.945ZM13.872,9.551c-4.452.05-8.879.4-7.959-1.343.274-.7.5-1.219.5-1.219H17.33C16.658,8.531,16.384,9.526,13.872,9.551Z" transform="translate(-2354 -1471)"/><path class="a" d="M75.3,18.1" transform="translate(-2410.404 -1484.598)"/><g transform="translate(-2330.005 -1466.026)"><path class="a" d="M126.221,20l-.821,1.915h2.562L128.907,20Z" transform="translate(-118.038 -20)"/><path class="a" d="M114.946,20l-.846,1.915h2.338L117.284,20Z" transform="translate(-109.548 -20)"/><path class="a" d="M96.646,20,95.8,21.915h4.079L100.725,20Z" transform="translate(-95.8 -20)"/></g></g></svg>